PathFileType	4	(X/Y/Z)	OpenSim_Sub08_CSStiffKnee_Magnet.trc
DataRate	CameraRate	NumFrames	NumMarkers	Units	OrigDataRate	OrigDataStartFrame	OrigNumFrames
100	100	33	8	m	100	1	5282
Frame#	Time	torso_imu_offset_imu	pelvis_imu_offset_imu	tibia_r_imu_offset_imu	femur_r_imu_offset_imu	tibia_l_imu_offset_imu	femur_l_imu_offset_imu	toes_r_imu_offset_imu	toes_l_imu_offset_imu
				X1	Y1	Z1	X2	Y2	Z2	X3	Y3	Z3	X4	Y4	Z4	X5	Y5	Z5	X6	Y6	Z6	X7	Y7	Z7	X8		Y8	Z8	

1	0	-0.95015646	-0.15039252	0.06618080	-0.65481089	0.16717721	-0.67807567	-0.69267751	-0.51707189	-0.05219433	-0.73235950	-0.43054058	-0.11818205	-0.70068240	0.39816234	0.20739514	-0.59100173	0.09507113	0.29139446	-0.64466329	-0.26690165	-0.46508450	-0.72694403	-0.15684071	-0.38063740
2	0.01000000	-0.95236594	-0.15040467	0.06080422	-0.65276844	0.16353461	-0.67935564	-0.68914010	-0.51730519	-0.05016635	-0.73119292	-0.43111428	-0.11704835	-0.69749554	0.39723516	0.20591583	-0.59062740	0.09610021	0.29348398	-0.64575916	-0.26647109	-0.46695775	-0.72545530	-0.16047103	-0.37799577
3	0.02000000	-0.94881442	-0.14959978	0.06132982	-0.65980374	0.16629586	-0.67591327	-0.68851734	-0.51600021	-0.05137190	-0.72934282	-0.43218907	-0.11427879	-0.70284758	0.39894438	0.20496341	-0.58994768	0.09795164	0.29464912	-0.64855368	-0.26511487	-0.46344049	-0.72655054	-0.15919115	-0.38344214
4	0.03000000	-0.94964265	-0.15332610	0.06432939	-0.65732823	0.17030597	-0.67564829	-0.68862567	-0.51561608	-0.04775369	-0.73210941	-0.43363545	-0.11315375	-0.70272377	0.39880455	0.20326502	-0.59383424	0.09528387	0.29424879	-0.64769222	-0.26559956	-0.46446518	-0.72347478	-0.15460811	-0.38279215
5	0.04000000	-0.94841674	-0.15036622	0.06483738	-0.65467210	0.16212327	-0.67291593	-0.68854049	-0.51897648	-0.04917885	-0.73455254	-0.43309437	-0.11380183	-0.70500734	0.39765466	0.20496926	-0.59700172	0.09888302	0.29523436	-0.64245393	-0.26449814	-0.46336480	-0.72256857	-0.16228690	-0.38049512
6	0.05000000	-0.94614252	-0.15347254	0.06673260	-0.65446548	0.16221859	-0.66982761	-0.68807138	-0.52346802	-0.05274179	-0.73367294	-0.43433120	-0.11175467	-0.70176386	0.39607482	0.20656344	-0.59344387	0.09896566	0.29828339	-0.64095245	-0.26210002	-0.46753511	-0.72826294	-0.15919540	-0.38420024
7	0.06000000	-0.95094230	-0.15541964	0.06535648	-0.65080484	0.16266601	-0.67182300	-0.68960613	-0.51892745	-0.05604725	-0.72818769	-0.43553983	-0.11285436	-0.70036798	0.39749957	0.20452424	-0.59269892	0.09503596	0.29718521	-0.64682314	-0.26724042	-0.46968602	-0.72558705	-0.15152451	-0.38415666
8	0.07000000	-0.95150491	-0.15029465	0.06264935	-0.65451341	0.16026226	-0.67266640	-0.68997796	-0.51605631	-0.05296269	-0.72766168	-0.43508336	-0.11681914	-0.70287861	0.39969951	0.20464872	-0.59173044	0.09913526	0.29218190	-0.64766961	-0.26534418	-0.46243783	-0.72702562	-0.15511858	-0.38129688
9	0.08000000	-0.95196094	-0.15166527	0.06155026	-0.65518190	0.16485259	-0.67394953	-0.68762689	-0.52066619	-0.04991197	-0.72908398	-0.43594471	-0.11231244	-0.69948307	0.40238525	0.20612899	-0.59039883	0.09820462	0.29449430	-0.64406116	-0.26266222	-0.46016603	-0.72962309	-0.16089304	-0.37947571
10	0.09000000	-0.94933009	-0.15051427	0.06230687	-0.65539324	0.16662662	-0.67593984	-0.69116687	-0.52163969	-0.05122469	-0.72932204	-0.43243690	-0.11450496	-0.69944737	0.40207523	0.20517956	-0.59040786	0.09837726	0.29574051	-0.64058787	-0.26362967	-0.46456742	-0.72945127	-0.15867599	-0.37573379
11	0.10000000	-0.94676459	-0.15426638	0.06700112	-0.65391001	0.16742082	-0.67343871	-0.69049590	-0.51969916	-0.04786489	-0.73402960	-0.43446618	-0.11667971	-0.70368722	0.40090421	0.20090588	-0.59170336	0.09861733	0.29543340	-0.64694887	-0.26167885	-0.46669068	-0.72778521	-0.15627724	-0.38071102
12	0.11000000	-0.94705242	-0.15130269	0.06651063	-0.65426086	0.16930512	-0.67534780	-0.69015855	-0.52163590	-0.04787451	-0.73241829	-0.43565451	-0.11222633	-0.69802300	0.39958192	0.20121840	-0.59255408	0.09748442	0.29572090	-0.64756164	-0.26341580	-0.46573025	-0.72861001	-0.15545379	-0.38337351
13	0.12000000	-0.94913761	-0.14799284	0.06338198	-0.65406593	0.16677134	-0.67689760	-0.69245355	-0.52068136	-0.05055259	-0.72811147	-0.43519102	-0.11596497	-0.69819027	0.39972573	0.20399788	-0.58733683	0.10259999	0.29429812	-0.64555432	-0.26449109	-0.46112956	-0.72709861	-0.15455523	-0.38105293
14	0.13000000	-0.95338863	-0.15305819	0.06362982	-0.65382104	0.16333504	-0.67483381	-0.68913390	-0.51599942	-0.05313714	-0.72949306	-0.43613142	-0.11724218	-0.70315490	0.40019815	0.20492834	-0.59017273	0.10112399	0.28554060	-0.64744795	-0.26477209	-0.46303577	-0.72627768	-0.15952231	-0.38150938
15	0.14000000	-0.95135738	-0.15331952	0.06616338	-0.65499552	0.16753051	-0.67512892	-0.68870499	-0.51889571	-0.05345798	-0.73431804	-0.43231454	-0.11474157	-0.70095199	0.39789004	0.20501814	-0.58926412	0.09562656	0.29165747	-0.64701011	-0.26232867	-0.46581188	-0.73070691	-0.15840592	-0.38105856
16	0.15000000	-0.94943372	-0.15404409	0.06170055	-0.65066688	0.16480404	-0.67665278	-0.68693565	-0.51727397	-0.04934593	-0.73081892	-0.43574792	-0.11891990	-0.69836088	0.40115756	0.20369799	-0.58991041	0.09504416	0.30106289	-0.64778309	-0.26013149	-0.46515948	-0.72574143	-0.15155740	-0.38335103
17	0.16000000	-0.94695361	-0.15060973	0.05861566	-0.65554471	0.16690657	-0.67633722	-0.68931541	-0.52193277	-0.04704004	-0.72817879	-0.43696917	-0.11624144	-0.69856734	0.40247908	0.20190142	-0.59412350	0.09600268	0.29455658	-0.64461028	-0.26581012	-0.46551171	-0.72399174	-0.15549897	-0.38106997
18	0.17000000	-0.94686373	-0.15153636	0.06266357	-0.65778578	0.16607480	-0.67635034	-0.69325559	-0.52237356	-0.05396530	-0.73054841	-0.43402154	-0.11636936	-0.70072886	0.40024187	0.20436609	-0.58816173	0.09839638	0.29445503	-0.64420080	-0.26744955	-0.46408419	-0.72924322	-0.15811534	-0.38149135
19	0.18000000	-0.94973386	-0.15047069	0.06820369	-0.65587768	0.16073612	-0.67658291	-0.68576472	-0.51567686	-0.05313628	-0.72898880	-0.43317830	-0.11200577	-0.69767396	0.40265130	0.20240634	-0.59146783	0.10046818	0.29450192	-0.64284452	-0.26122445	-0.47047964	-0.72686425	-0.15674016	-0.38178164
20	0.19000000	-0.95070408	-0.14791714	0.06695855	-0.65550199	0.16665810	-0.67438865	-0.68358952	-0.51876826	-0.05102484	-0.72751739	-0.43360937	-0.10998395	-0.70257530	0.40815831	0.20036354	-0.59695971	0.09555714	0.29414127	-0.64306136	-0.26193227	-0.46954937	-0.72563628	-0.15361338	-0.37992448
21	0.20000000	-0.95054419	-0.14726301	0.06679598	-0.65271812	0.16497249	-0.66929087	-0.68788031	-0.51740199	-0.05389210	-0.72986664	-0.43220946	-0.11575256	-0.69862908	0.40843985	0.20332163	-0.58831908	0.09503212	0.29581162	-0.64330605	-0.26480735	-0.46031177	-0.72755640	-0.15541219	-0.38102105
22	0.21000000	-0.95048816	-0.14559781	0.06798714	-0.65165480	0.16619006	-0.67310776	-0.69031613	-0.52053866	-0.04969126	-0.73387517	-0.43105878	-0.11389530	-0.69797577	0.40153204	0.20589296	-0.58702610	0.09584850	0.29553264	-0.64183581	-0.26398397	-0.46352530	-0.72687101	-0.15738547	-0.37791205
23	0.22000000	-0.95087218	-0.14687099	0.06256107	-0.65307706	0.16956591	-0.67609147	-0.68754230	-0.52077349	-0.05114472	-0.73279669	-0.43074218	-0.11766110	-0.70343736	0.39812098	0.20668818	-0.59476641	0.09228401	0.29525282	-0.64143033	-0.26425026	-0.47104941	-0.72754018	-0.16060104	-0.38339049
24	0.23000000	-0.94911750	-0.14972934	0.06592509	-0.65544148	0.16692844	-0.67339935	-0.69119766	-0.51645339	-0.04870772	-0.73386505	-0.43340336	-0.11626678	-0.69912155	0.40658954	0.20200334	-0.59530964	0.09324297	0.29692572	-0.64504139	-0.26400849	-0.46660894	-0.73146890	-0.15785175	-0.38307949
25	0.24000000	-0.94971044	-0.14870991	0.06353981	-0.65655391	0.16885406	-0.67535364	-0.69116169	-0.51671294	-0.05218079	-0.72987659	-0.43476523	-0.11106040	-0.70033469	0.40606325	0.20023333	-0.59229265	0.09953210	0.29655569	-0.64922263	-0.26565491	-0.46646909	-0.72728996	-0.15327520	-0.37884506
26	0.25000000	-0.94854411	-0.15072277	0.06398028	-0.65630027	0.16888517	-0.67694409	-0.68765021	-0.51975073	-0.05253437	-0.72678622	-0.43297583	-0.11475587	-0.69967544	0.40738946	0.20519396	-0.59267949	0.09758639	0.29663752	-0.64594723	-0.26538325	-0.46438956	-0.72234538	-0.15592806	-0.37674551
27	0.26000000	-0.94633062	-0.14946065	0.06429844	-0.65644653	0.16683513	-0.67534350	-0.68964584	-0.51851115	-0.04670134	-0.73172089	-0.43367557	-0.11766012	-0.69423081	0.40892730	0.20427334	-0.59387450	0.09331295	0.29668024	-0.64369657	-0.26509807	-0.46064153	-0.72753690	-0.15538556	-0.37644014
28	0.27000000	-0.95152941	-0.14621040	0.06160647	-0.65520001	0.17015219	-0.67347040	-0.68386257	-0.51506092	-0.05237864	-0.73201071	-0.43242188	-0.11537676	-0.69811369	0.40035109	0.20360555	-0.59407838	0.09394979	0.29642752	-0.64401272	-0.26675458	-0.46657271	-0.72950776	-0.16231771	-0.37976119
29	0.28000000	-0.95079836	-0.14930237	0.06589268	-0.65463858	0.17010236	-0.67651889	-0.68897976	-0.51920505	-0.05402683	-0.72564214	-0.43749977	-0.11541195	-0.69861804	0.40318121	0.20313795	-0.59176261	0.09488238	0.29767029	-0.64380903	-0.26550986	-0.46301540	-0.72842517	-0.15902672	-0.37886587
30	0.29000000	-0.94837152	-0.15159723	0.06337304	-0.65868019	0.16698461	-0.67172329	-0.69056152	-0.52310887	-0.05469477	-0.72760260	-0.43495043	-0.11593794	-0.69280902	0.40565469	0.20533804	-0.58815569	0.09039268	0.29899367	-0.64455189	-0.26251587	-0.46017557	-0.72541393	-0.15317503	-0.37967535
31	0.30000000	-0.95261593	-0.15101571	0.05720089	-0.66108155	0.16806243	-0.66713644	-0.68448805	-0.52037960	-0.05010007	-0.73186858	-0.43478827	-0.11443929	-0.69109640	0.40528879	0.20896704	-0.59241651	0.08996190	0.29160289	-0.64862202	-0.26432405	-0.46367694	-0.72712898	-0.15542842	-0.37678349
32	0.31000000	-0.94935527	-0.14512692	0.05929365	-0.66000899	0.16516041	-0.67016857	-0.69172642	-0.51597762	-0.04940832	-0.72962745	-0.43823036	-0.12170801	-0.69707365	0.40482814	0.20497770	-0.59738278	0.09577833	0.29555115	-0.64932765	-0.26588295	-0.46364903	-0.72840664	-0.15775892	-0.37518331
33	0.32000000	-0.94768660	-0.14552074	0.06191626	-0.65490775	0.16400354	-0.66747839	-0.69158215	-0.51952881	-0.05014839	-0.72880024	-0.43579529	-0.11775229	-0.69999265	0.40758602	0.20577193	-0.59205586	0.09668628	0.29868313	-0.64191611	-0.26388090	-0.46666770	-0.72786683	-0.15881629	-0.37843412
